<svg id="logo" xmlns="http://www.w3.org/2000/svg" width="512" height="512" viewBox="0 0 512 512">
  <defs>
    <linearGradient id="left-to-right">
      <stop offset="0" stop-color="#ff5900">
        <animate dur="1s" attributeName="offset" fill="freeze" from="0" to="1" />
      </stop>
      <stop offset="0" stop-color="#fff">
        <animate dur="1s" attributeName="offset" fill="freeze" from="0" to="1" />
      </stop>
      
    </linearGradient>
  </defs>
  <path stroke="ff5900" fill="url(#left-to-right)" stroke-width="1" opacity="1" class="path" d="M 154 107 L 153 108 L 146 108 L 145 109 L 142 109 L 141 110 L 138 110 L 137 111 L 135 111 L 134 112 L 132 112 L 131 113 L 130 113 L 129 114 L 127 114 L 125 116 L 123 116 L 121 118 L 120 118 L 119 119 L 118 119 L 116 121 L 115 121 L 110 126 L 109 126 L 103 132 L 103 133 L 100 136 L 100 137 L 98 139 L 98 140 L 96 142 L 96 143 L 95 144 L 95 145 L 94 146 L 94 147 L 93 148 L 93 149 L 92 150 L 92 152 L 91 153 L 91 154 L 90 155 L 90 158 L 89 159 L 89 161 L 88 162 L 88 175 L 89 176 L 333 176 L 334 177 L 335 177 L 336 178 L 338 178 L 340 180 L 341 180 L 344 183 L 344 184 L 347 187 L 347 188 L 348 189 L 348 191 L 349 192 L 349 196 L 350 197 L 350 200 L 349 201 L 349 204 L 348 205 L 348 207 L 347 208 L 347 209 L 339 217 L 338 217 L 337 218 L 336 218 L 335 219 L 334 219 L 333 220 L 332 220 L 331 221 L 192 221 L 191 222 L 190 222 L 189 223 L 185 223 L 184 224 L 183 224 L 182 225 L 181 225 L 180 226 L 179 226 L 176 229 L 175 229 L 167 237 L 167 239 L 165 241 L 165 242 L 164 243 L 164 246 L 163 247 L 163 248 L 162 249 L 162 264 L 163 265 L 163 266 L 164 267 L 164 270 L 166 272 L 166 273 L 167 274 L 167 275 L 170 278 L 170 279 L 173 282 L 174 282 L 177 285 L 178 285 L 182 289 L 183 289 L 186 292 L 187 292 L 190 295 L 191 295 L 193 297 L 194 297 L 197 300 L 198 300 L 200 302 L 201 302 L 205 306 L 206 306 L 210 310 L 211 310 L 212 311 L 213 311 L 217 315 L 218 315 L 221 318 L 222 318 L 224 320 L 225 320 L 229 324 L 230 324 L 233 327 L 234 327 L 236 329 L 237 329 L 241 333 L 242 333 L 245 336 L 246 336 L 249 339 L 250 339 L 252 341 L 253 341 L 257 345 L 258 345 L 260 347 L 261 347 L 266 352 L 267 352 L 269 354 L 270 354 L 272 356 L 273 356 L 277 360 L 278 360 L 280 362 L 281 362 L 284 365 L 285 365 L 288 368 L 289 368 L 292 371 L 293 371 L 296 374 L 297 374 L 299 376 L 300 376 L 303 379 L 304 379 L 308 383 L 309 383 L 311 385 L 312 385 L 315 388 L 316 388 L 320 392 L 321 392 L 324 395 L 325 395 L 327 397 L 328 397 L 330 399 L 331 399 L 336 404 L 337 404 L 339 406 L 340 406 L 343 409 L 344 409 L 348 413 L 349 413 L 350 414 L 351 414 L 355 418 L 356 418 L 359 421 L 360 421 L 363 424 L 364 424 L 367 427 L 368 427 L 371 430 L 372 430 L 374 432 L 375 432 L 379 436 L 380 436 L 383 439 L 384 439 L 386 441 L 387 441 L 391 445 L 392 445 L 395 448 L 396 448 L 399 451 L 400 451 L 403 454 L 404 454 L 405 455 L 406 455 L 408 453 L 408 452 L 410 450 L 410 449 L 412 447 L 412 446 L 413 445 L 413 444 L 414 443 L 414 442 L 415 441 L 415 440 L 416 439 L 416 437 L 417 436 L 417 435 L 418 434 L 418 431 L 419 430 L 419 428 L 420 427 L 420 423 L 421 422 L 421 405 L 420 404 L 420 400 L 419 399 L 419 398 L 418 397 L 418 393 L 417 392 L 417 391 L 416 390 L 416 388 L 415 387 L 415 386 L 414 385 L 414 384 L 413 383 L 413 382 L 411 380 L 411 379 L 409 377 L 409 376 L 406 373 L 406 372 L 398 364 L 397 364 L 392 359 L 391 359 L 388 356 L 387 356 L 385 354 L 384 354 L 379 349 L 378 349 L 376 347 L 375 347 L 373 345 L 372 345 L 367 340 L 366 340 L 363 337 L 362 337 L 359 334 L 358 334 L 354 330 L 353 330 L 351 328 L 350 328 L 347 325 L 346 325 L 341 320 L 340 320 L 338 318 L 337 318 L 334 315 L 333 315 L 329 311 L 328 311 L 326 309 L 325 309 L 322 306 L 321 306 L 317 302 L 316 302 L 314 300 L 313 300 L 310 297 L 309 297 L 305 293 L 304 293 L 302 291 L 301 291 L 300 290 L 300 289 L 301 288 L 306 288 L 307 289 L 333 289 L 334 288 L 341 288 L 342 287 L 345 287 L 346 286 L 350 286 L 351 285 L 353 285 L 354 284 L 357 284 L 358 283 L 359 283 L 360 282 L 362 282 L 363 281 L 365 281 L 366 280 L 367 280 L 368 279 L 369 279 L 371 277 L 373 277 L 375 275 L 376 275 L 377 274 L 378 274 L 380 272 L 381 272 L 384 269 L 385 269 L 389 265 L 390 265 L 399 256 L 399 255 L 404 250 L 404 249 L 406 247 L 406 246 L 408 244 L 408 243 L 409 242 L 409 241 L 411 239 L 411 237 L 413 235 L 413 234 L 414 233 L 414 231 L 415 230 L 415 229 L 416 228 L 416 226 L 417 225 L 417 224 L 418 223 L 418 218 L 419 217 L 419 215 L 420 214 L 420 210 L 421 209 L 421 187 L 420 186 L 420 182 L 419 181 L 419 179 L 418 178 L 418 173 L 417 172 L 417 171 L 416 170 L 416 168 L 415 167 L 415 166 L 414 165 L 414 164 L 413 163 L 413 161 L 411 159 L 411 157 L 409 155 L 409 154 L 408 153 L 408 152 L 406 150 L 406 149 L 404 147 L 404 146 L 399 141 L 399 140 L 391 132 L 390 132 L 386 128 L 385 128 L 383 126 L 382 126 L 379 123 L 378 123 L 377 122 L 376 122 L 375 121 L 374 121 L 372 119 L 370 119 L 368 117 L 367 117 L 366 116 L 364 116 L 363 115 L 362 115 L 361 114 L 358 114 L 357 113 L 356 113 L 355 112 L 352 112 L 351 111 L 349 111 L 348 110 L 344 110 L 343 109 L 337 109 L 336 108 L 230 108 L 229 107 Z"/>
</svg>